HIERARCHY
ROOT Hips
{
	OFFSET 0.000000 87.230942 0.000000
	CHANNELS 6 Xposition Yposition Zposition Xrotation Yrotation Zrotation
	JOINT Pelvis
	{
		OFFSET 0.000000 0.000000 0.000000
		CHANNELS 3 Xrotation Yrotation Zrotation
		JOINT LeftUpLeg
		{
			OFFSET 12.017000 -9.376404 -2.439400
			CHANNELS 3 Xrotation Yrotation Zrotation
			JOINT LeftLeg
			{
				OFFSET -0.007312 -32.846973 2.110600
				CHANNELS 3 Xrotation Yrotation Zrotation
				JOINT LeftFoot
				{
					OFFSET 0.007312 -32.065170 -0.570400
					CHANNELS 3 Xrotation Yrotation Zrotation
					JOINT LeftToeBase
					{
						OFFSET 0.728300 -11.045900 13.180700
						CHANNELS 3 Xrotation Yrotation Zrotation
						End Site
						{
							OFFSET 0.000000 17.212589 0.000000
						}
					}
				}
				JOINT LeftPantLeg
				{
					OFFSET 0.002788 -16.709013 -3.143600
					CHANNELS 3 Xrotation Yrotation Zrotation
					End Site
					{
						OFFSET -0.605125 24.528742 0.000000
					}
				}
			}
			JOINT Left_Butt
			{
				OFFSET -6.630234 1.326584 -3.183700
				CHANNELS 3 Xrotation Yrotation Zrotation
				End Site
				{
					OFFSET -0.498041 20.188049 0.000000
				}
			}
		}
		JOINT RightUpLeg
		{
			OFFSET -11.717000 -9.376404 -2.439400
			CHANNELS 3 Xrotation Yrotation Zrotation
			JOINT RightLeg
			{
				OFFSET -0.003241 -32.846912 2.110600
				CHANNELS 3 Xrotation Yrotation Zrotation
				JOINT RightFoot
				{
					OFFSET 0.003241 -32.065136 -0.570500
					CHANNELS 3 Xrotation Yrotation Zrotation
					JOINT RightToeBase
					{
						OFFSET -0.728300 -11.045901 13.180700
						CHANNELS 3 Xrotation Yrotation Zrotation
						End Site
						{
							OFFSET 0.000000 17.212593 0.000000
						}
					}
				}
				JOINT RightPantLeg
				{
					OFFSET 0.008142 -16.708982 -3.143700
					CHANNELS 3 Xrotation Yrotation Zrotation
					End Site
					{
						OFFSET 0.605088 24.528715 0.000000
					}
				}
			}
			JOINT Right_Butt
			{
				OFFSET 6.630732 1.326584 -3.183700
				CHANNELS 3 Xrotation Yrotation Zrotation
				End Site
				{
					OFFSET 0.498015 20.188240 0.000000
				}
			}
		}
	}
	JOINT Spine
	{
		OFFSET -0.062400 7.848404 3.918300
		CHANNELS 3 Xrotation Yrotation Zrotation
		JOINT Spine1
		{
			OFFSET -0.072800 11.422302 0.713400
			CHANNELS 3 Xrotation Yrotation Zrotation
			JOINT Spine2
			{
				OFFSET -0.083200 13.054001 -1.931600
				CHANNELS 3 Xrotation Yrotation Zrotation
				JOINT Neck
				{
					OFFSET -0.092200 14.121796 -5.138800
					CHANNELS 3 Xrotation Yrotation Zrotation
					JOINT Head
					{
						OFFSET 0.000200 10.447403 -0.842000
						CHANNELS 3 Xrotation Yrotation Zrotation
						JOINT Visor
						{
							OFFSET 0.457100 25.671204 16.550400
							CHANNELS 3 Xrotation Yrotation Zrotation
							End Site
							{
								OFFSET 0.000000 26.061493 0.000000
							}
						}
						JOINT HairMidA
						{
							OFFSET 0.459400 31.585403 8.437400
							CHANNELS 3 Xrotation Yrotation Zrotation
							End Site
							{
								OFFSET 0.000000 26.061493 0.000000
							}
						}
						JOINT HairMidB
						{
							OFFSET 0.464000 33.309204 -8.389700
							CHANNELS 3 Xrotation Yrotation Zrotation
							End Site
							{
								OFFSET 0.000000 26.061493 0.000000
							}
						}
						JOINT HairMidC
						{
							OFFSET 0.466600 27.991196 -17.375099
							CHANNELS 3 Xrotation Yrotation Zrotation
							End Site
							{
								OFFSET 0.000000 26.061493 0.000000
							}
						}
						JOINT HairMidD
						{
							OFFSET 0.467700 17.888092 -21.169500
							CHANNELS 3 Xrotation Yrotation Zrotation
							End Site
							{
								OFFSET 0.000000 26.061493 0.000000
							}
						}
						JOINT HairMidE
						{
							OFFSET 5.325700 3.514603 -14.369699
							CHANNELS 3 Xrotation Yrotation Zrotation
							End Site
							{
								OFFSET 0.000000 26.061493 0.000000
							}
						}
						JOINT HairMidF
						{
							OFFSET -4.394100 3.514603 -14.372400
							CHANNELS 3 Xrotation Yrotation Zrotation
							End Site
							{
								OFFSET 0.000000 26.061493 0.000000
							}
						}
						JOINT HairLeftA
						{
							OFFSET 15.319900 25.746506 2.623300
							CHANNELS 3 Xrotation Yrotation Zrotation
							End Site
							{
								OFFSET 0.000000 26.061493 0.000000
							}
						}
						JOINT HairLeftB
						{
							OFFSET 12.619500 29.289398 -8.731499
							CHANNELS 3 Xrotation Yrotation Zrotation
							End Site
							{
								OFFSET 0.000000 26.061493 0.000000
							}
						}
						JOINT HairLeftC
						{
							OFFSET 15.714800 15.959900 2.909800
							CHANNELS 3 Xrotation Yrotation Zrotation
							End Site
							{
								OFFSET 0.000000 26.061493 0.000000
							}
						}
						JOINT HairLeftD
						{
							OFFSET 16.101700 18.437408 -7.553200
							CHANNELS 3 Xrotation Yrotation Zrotation
							End Site
							{
								OFFSET 0.000000 26.061493 0.000000
							}
						}
						JOINT HairLeftE
						{
							OFFSET 9.731900 17.915009 -18.316799
							CHANNELS 3 Xrotation Yrotation Zrotation
							End Site
							{
								OFFSET 0.000000 26.061493 0.000000
							}
						}
						JOINT HairLeftF
						{
							OFFSET 11.204300 4.953598 -9.668100
							CHANNELS 3 Xrotation Yrotation Zrotation
							End Site
							{
								OFFSET 0.000000 26.061493 0.000000
							}
						}
						JOINT HairRightA
						{
							OFFSET -14.397900 25.746307 2.615100
							CHANNELS 3 Xrotation Yrotation Zrotation
							End Site
							{
								OFFSET 0.000000 26.061493 0.000000
							}
						}
						JOINT HairRightB
						{
							OFFSET -11.691200 29.289200 -8.738199
							CHANNELS 3 Xrotation Yrotation Zrotation
							End Site
							{
								OFFSET 0.000000 26.061493 0.000000
							}
						}
						JOINT HairRightC
						{
							OFFSET -14.792900 15.959702 2.901400
							CHANNELS 3 Xrotation Yrotation Zrotation
							End Site
							{
								OFFSET 0.000000 26.061493 0.000000
							}
						}
						JOINT HairRightD
						{
							OFFSET -15.174000 18.437195 -7.561900
							CHANNELS 3 Xrotation Yrotation Zrotation
							End Site
							{
								OFFSET 0.000000 26.061493 0.000000
							}
						}
						JOINT HairRightE
						{
							OFFSET -8.798200 17.914902 -18.322001
							CHANNELS 3 Xrotation Yrotation Zrotation
							End Site
							{
								OFFSET 0.000000 26.061493 0.000000
							}
						}
						JOINT HairRightF
						{
							OFFSET -10.275200 4.953506 -9.674099
							CHANNELS 3 Xrotation Yrotation Zrotation
							End Site
							{
								OFFSET 0.000000 26.061493 0.000000
							}
						}
					}
				}
				JOINT LeftShoulder
				{
					OFFSET 5.133500 7.341202 -1.867600
					CHANNELS 3 Xrotation Yrotation Zrotation
					JOINT LeftArm
					{
						OFFSET 8.072663 0.936867 -2.176600
						CHANNELS 3 Xrotation Yrotation Zrotation
						JOINT LeftForeArm
						{
							OFFSET 31.271999 0.000000 0.000000
							CHANNELS 3 Xrotation Yrotation Zrotation
							JOINT LeftHand
							{
								OFFSET 31.771030 0.000000 0.000000
								CHANNELS 3 Xrotation Yrotation Zrotation
								JOINT LeftHandThumb1
								{
									OFFSET 2.886520 -2.557846 4.416640
									CHANNELS 3 Xrotation Yrotation Zrotation
									JOINT LeftHandThumb2
									{
										OFFSET 2.371025 -1.368912 1.368911
										CHANNELS 3 Xrotation Yrotation Zrotation
										JOINT LeftHandThumb3
										{
											OFFSET 2.243378 -1.295212 1.295213
											CHANNELS 3 Xrotation Yrotation Zrotation
											End Site
											{
												OFFSET -0.332611 2.876945 0.020015
											}
										}
									}
								}
								JOINT LeftHandIndex1
								{
									OFFSET 8.568985 -0.641945 3.119977
									CHANNELS 3 Xrotation Yrotation Zrotation
									JOINT LeftHandIndex2
									{
										OFFSET 3.348503 0.000000 0.000000
										CHANNELS 3 Xrotation Yrotation Zrotation
										JOINT LeftHandIndex3
										{
											OFFSET 3.314552 0.000000 0.000000
											CHANNELS 3 Xrotation Yrotation Zrotation
											End Site
											{
												OFFSET -1.032898 3.075485 0.678796
											}
										}
									}
								}
								JOINT LeftHandMiddle1
								{
									OFFSET 8.124603 0.000000 0.000000
									CHANNELS 3 Xrotation Yrotation Zrotation
									JOINT LeftHandMiddle2
									{
										OFFSET 4.166275 0.000000 0.000000
										CHANNELS 3 Xrotation Yrotation Zrotation
										JOINT LeftHandMiddle3
										{
											OFFSET 3.018135 0.000000 0.000000
											CHANNELS 3 Xrotation Yrotation Zrotation
											End Site
											{
												OFFSET -1.032700 2.767982 0.617226
											}
										}
									}
								}
								JOINT LeftHandRing1
								{
									OFFSET 8.571686 -0.031357 -2.884048
									CHANNELS 3 Xrotation Yrotation Zrotation
									JOINT LeftHandRing2
									{
										OFFSET 3.671181 0.000000 0.000000
										CHANNELS 3 Xrotation Yrotation Zrotation
										JOINT LeftHandRing3
										{
											OFFSET 2.728851 0.000000 0.000000
											CHANNELS 3 Xrotation Yrotation Zrotation
											End Site
											{
												OFFSET -0.815796 2.539223 0.577389
											}
										}
									}
								}
								JOINT LeftHandPinky1
								{
									OFFSET 7.854515 -0.675232 -5.213020
									CHANNELS 3 Xrotation Yrotation Zrotation
									JOINT LeftHandPinky2
									{
										OFFSET 3.068596 0.000000 0.000000
										CHANNELS 3 Xrotation Yrotation Zrotation
										JOINT LeftHandPinky3
										{
											OFFSET 2.396042 0.000000 0.000000
											CHANNELS 3 Xrotation Yrotation Zrotation
											End Site
											{
												OFFSET -0.524597 2.267998 0.567429
											}
										}
									}
								}
							}
							JOINT LeftSleeve
							{
								OFFSET 19.684509 -0.200119 0.476146
								CHANNELS 3 Xrotation Yrotation Zrotation
								End Site
								{
									OFFSET -0.031017 25.731133 -0.002868
								}
							}
						}
					}
				}
				JOINT RightShoulder
				{
					OFFSET -4.395900 7.341202 -1.870200
					CHANNELS 3 Xrotation Yrotation Zrotation
					JOINT RightArm
					{
						OFFSET -8.071453 0.936867 -2.181100
						CHANNELS 3 Xrotation Yrotation Zrotation
						JOINT RightForeArm
						{
							OFFSET -31.272011 0.000000 0.000000
							CHANNELS 3 Xrotation Yrotation Zrotation
							JOINT RightHand
							{
								OFFSET -31.771019 0.000000 0.000000
								CHANNELS 3 Xrotation Yrotation Zrotation
								JOINT RightHandThumb1
								{
									OFFSET -2.886520 -2.557808 4.416626
									CHANNELS 3 Xrotation Yrotation Zrotation
									JOINT RightHandThumb2
									{
										OFFSET -2.371056 -1.368927 1.368928
										CHANNELS 3 Xrotation Yrotation Zrotation
										JOINT RightHandThumb3
										{
											OFFSET -2.243362 -1.295204 1.295206
											CHANNELS 3 Xrotation Yrotation Zrotation
											End Site
											{
												OFFSET 0.332642 2.876938 0.020047
											}
										}
									}
								}
								JOINT RightHandIndex1
								{
									OFFSET -8.568993 -0.641953 3.120017
									CHANNELS 3 Xrotation Yrotation Zrotation
									JOINT RightHandIndex2
									{
										OFFSET -3.348518 0.000000 0.000000
										CHANNELS 3 Xrotation Yrotation Zrotation
										JOINT RightHandIndex3
										{
											OFFSET -3.314552 0.000000 0.000000
											CHANNELS 3 Xrotation Yrotation Zrotation
											End Site
											{
												OFFSET 1.032898 3.075478 0.678804
											}
										}
									}
								}
								JOINT RightHandMiddle1
								{
									OFFSET -8.124588 0.000000 0.000000
									CHANNELS 3 Xrotation Yrotation Zrotation
									JOINT RightHandMiddle2
									{
										OFFSET -4.166275 0.000000 0.000000
										CHANNELS 3 Xrotation Yrotation Zrotation
										JOINT RightHandMiddle3
										{
											OFFSET -3.018097 0.000000 0.000000
											CHANNELS 3 Xrotation Yrotation Zrotation
											End Site
											{
												OFFSET 1.032700 2.767937 0.617197
											}
										}
									}
								}
								JOINT RightHandRing1
								{
									OFFSET -8.571747 -0.031349 -2.884061
									CHANNELS 3 Xrotation Yrotation Zrotation
									JOINT RightHandRing2
									{
										OFFSET -3.671204 0.000000 0.000000
										CHANNELS 3 Xrotation Yrotation Zrotation
										JOINT RightHandRing3
										{
											OFFSET -2.728874 0.000000 0.000000
											CHANNELS 3 Xrotation Yrotation Zrotation
											End Site
											{
												OFFSET 0.815804 2.539261 0.577413
											}
										}
									}
								}
								JOINT RightHandPinky1
								{
									OFFSET -7.854561 -0.675247 -5.212970
									CHANNELS 3 Xrotation Yrotation Zrotation
									JOINT RightHandPinky2
									{
										OFFSET -3.068550 0.000000 0.000000
										CHANNELS 3 Xrotation Yrotation Zrotation
										JOINT RightHandPinky3
										{
											OFFSET -2.395981 0.000000 0.000000
											CHANNELS 3 Xrotation Yrotation Zrotation
											End Site
											{
												OFFSET 0.524605 2.267952 0.567413
											}
										}
									}
								}
							}
							JOINT RightSleeve
							{
								OFFSET -19.684753 -0.200165 0.476065
								CHANNELS 3 Xrotation Yrotation Zrotation
								End Site
								{
									OFFSET 0.031342 25.731255 -0.002917
								}
							}
						}
					}
				}
				JOINT Hood
				{
					OFFSET 0.369700 14.447800 -5.317800
					CHANNELS 3 Xrotation Yrotation Zrotation
					JOINT Hood1
					{
						OFFSET 0.001700 -5.553802 -5.895100
						CHANNELS 3 Xrotation Yrotation Zrotation
						JOINT Hood2
						{
							OFFSET -0.000200 -8.380501 0.763600
							CHANNELS 3 Xrotation Yrotation Zrotation
							End Site
							{
								OFFSET 0.000000 8.415215 0.000000
							}
						}
					}
				}
				JOINT Left_Breast
				{
					OFFSET 5.682500 3.120102 3.188800
					CHANNELS 3 Xrotation Yrotation Zrotation
					End Site
					{
						OFFSET 0.000000 10.528564 0.000000
					}
				}
				JOINT Right_Breast
				{
					OFFSET -4.947600 3.120102 3.185900
					CHANNELS 3 Xrotation Yrotation Zrotation
					End Site
					{
						OFFSET 0.000000 10.528564 0.000000
					}
				}
				JOINT Whistle
				{
					OFFSET 0.368200 11.471298 0.095400
					CHANNELS 3 Xrotation Yrotation Zrotation
					JOINT Whistle1
					{
						OFFSET -0.002000 -6.349899 7.479800
						CHANNELS 3 Xrotation Yrotation Zrotation
						JOINT Whistle2
						{
							OFFSET -0.001300 -8.217598 4.717600
							CHANNELS 3 Xrotation Yrotation Zrotation
							End Site
							{
								OFFSET 0.000000 9.475479 0.000000
							}
						}
					}
				}
			}
		}
		JOINT Belly
		{
			OFFSET 0.212400 1.593002 3.163700
			CHANNELS 3 Xrotation Yrotation Zrotation
			End Site
			{
				OFFSET 0.000000 7.496635 0.000000
			}
		}
	}
	JOINT FitGrandmaFacialAnim_Joint
	{
		OFFSET 1.150000 -86.211197 -1.220100
		CHANNELS 3 Xrotation Yrotation Zrotation
		End Site
		{
			OFFSET 0.000000 31.666618 0.000000
		}
	}
}
MOTION
Frames: 4
Frame Time: 0.016667
-1.401525 77.659843 0.296932 9.530678 -61.580296 10.129312 0.000000 0.000002 -0.000000 -34.259928 12.357244 24.967825 38.597228 -8.035957 1.252987 -10.582149 -1.502720 -17.265800 0.000000 0.000000 0.000000 0.000000 0.000002 0.000003 -0.000003 -0.000000 -0.000000 -27.803275 -21.071379 -33.470130 37.983164 4.975711 -4.317627 -17.441933 -0.606281 24.098149 -0.000000 -0.000000 0.000000 0.000000 0.000000 0.000001 -0.000002 -0.000000 -0.000002 15.067254 -0.358071 -4.265179 5.872813 0.571247 -2.801480 5.868637 0.648864 -2.855438 -3.636309 1.441452 3.747640 -20.003652 54.833131 2.408447 -0.000000 0.000000 0.000000 -0.000000 0.000000 0.000000 -0.000000 0.000000 0.000000 -0.000000 0.000000 0.000000 -0.000000 0.000000 0.000000 -0.000000 0.000000 0.000000 -0.000000 0.000000 0.000000 -0.000000 0.000000 0.000000 -0.000000 0.000000 0.000000 -0.000000 0.000000 0.000000 -0.000000 0.000000 0.000000 -0.000000 0.000000 0.000000 -0.000000 0.000000 0.000000 -0.000000 0.000000 0.000000 -0.000000 0.000000 0.000000 -0.000000 0.000000 0.000000 -0.000000 0.000000 0.000000 -0.000000 0.000000 0.000000 -0.000000 0.000000 0.000000 1.829302 -3.192750 -12.271674 -39.386699 26.350110 -34.911989 0.430049 -46.810135 0.421476 -10.315194 -0.130075 0.363175 40.109883 -15.297201 -0.360479 5.639908 28.097807 11.338771 -0.000000 -0.000002 0.000002 6.882259 2.840020 -61.140486 8.247973 7.640030 -89.897891 -0.000001 -0.000001 0.000000 -2.345530 4.688872 -62.655231 8.754153 9.897048 -87.051253 0.000001 -0.000003 -0.000000 -9.042487 10.045642 -60.766185 8.523989 9.508890 -66.892940 0.000001 0.000002 -0.000001 -17.946879 14.754998 -51.485898 8.868371 8.667011 -84.812091 0.000000 -0.000001 -0.000004 0.000004 0.000001 0.000000 0.631517 7.257360 8.703783 7.936895 -9.680970 53.430787 -22.866913 36.192162 17.964135 -27.375376 10.434882 -17.812425 -2.346135 -6.100532 10.731426 2.364022 -23.806266 -8.771120 -0.000000 0.000001 -0.000000 -0.054772 0.532082 0.738714 0.019703 -0.087388 5.078572 -0.000001 0.000002 -0.000000 0.348253 -5.918496 2.583782 1.432627 -4.204248 24.052118 -0.000000 -0.000001 0.000002 1.205820 -11.756071 4.154745 1.794830 -3.771862 26.865441 0.000001 -0.000000 -0.000001 2.126213 -19.166856 11.319905 3.354799 -2.122219 18.828571 0.000001 -0.000001 0.000002 0.000000 0.000001 0.000001 0.000001 0.000000 -0.000002 0.000001 0.000000 -0.000002 0.000001 0.000000 -0.000002 0.000001 0.000000 -0.000002 0.000001 0.000000 -0.000002 0.000001 0.000000 -0.000001 -0.000001 -0.000000 -0.000000 -0.000001 -0.000000 -0.000000 0.000002 0.000000 0.000000 0.000000 0.000002 -0.000000 
-1.340723 77.690323 0.282702 8.497321 -61.867273 8.943442 0.000000 -0.000000 0.000000 -33.902129 12.362140 25.383823 38.845656 -7.470260 1.302060 -10.760208 -2.101002 -17.421383 -0.000000 0.000000 -0.000000 -0.000000 -0.000000 0.000002 0.000004 -0.000000 -0.000002 -27.353354 -21.474815 -33.365040 37.890751 6.731098 -4.162434 -17.339584 -1.709935 23.426050 -0.000000 -0.000000 -0.000000 0.000001 0.000000 0.000002 0.000001 0.000001 -0.000000 14.988676 -0.354558 -4.252922 5.836666 0.551939 -2.747398 5.832891 0.628929 -2.797343 -3.515846 1.561337 3.707973 -19.681544 55.042217 2.670140 -0.000000 0.000000 -0.000001 -0.000000 0.000000 -0.000001 -0.000000 0.000000 -0.000001 -0.000000 0.000000 -0.000001 -0.000000 0.000000 -0.000001 -0.000000 0.000000 -0.000001 -0.000000 0.000000 -0.000001 -0.000000 0.000000 -0.000001 -0.000000 0.000000 -0.000001 -0.000000 0.000000 -0.000001 -0.000000 0.000000 -0.000001 -0.000000 0.000000 -0.000001 -0.000000 0.000000 -0.000001 -0.000000 0.000000 -0.000001 -0.000000 0.000000 -0.000001 -0.000000 0.000000 -0.000001 -0.000000 0.000000 -0.000001 -0.000000 0.000000 -0.000001 -0.000000 0.000000 -0.000001 1.808117 -3.150469 -12.416800 -36.014689 24.816594 -34.515145 0.404980 -47.203304 0.405359 -13.147535 -0.038068 2.175025 40.109883 -15.297199 -0.360474 5.639908 28.097805 11.338773 -0.000001 0.000001 0.000002 6.882261 2.840014 -61.140486 8.247978 7.640028 -89.897884 -0.000001 -0.000001 -0.000001 -2.345528 4.688866 -62.655231 8.754150 9.897053 -87.051246 -0.000002 -0.000000 0.000002 -9.042488 10.045636 -60.766192 8.523983 9.508898 -66.892947 0.000003 0.000000 0.000002 -17.946872 14.754993 -51.485891 8.868370 8.667007 -84.812091 0.000004 -0.000001 -0.000000 0.000001 -0.000002 0.000002 0.099915 6.784903 8.707339 8.453911 -9.716523 53.843843 -22.782598 36.391391 17.920965 -26.906740 10.541915 -17.555695 -2.229119 -5.644476 10.223974 2.393468 -23.029701 -8.550832 -0.000000 -0.000000 0.000000 -0.031262 0.157241 3.080526 0.067415 -0.504278 7.959861 -0.000001 0.000000 -0.000000 0.376503 -6.306657 4.884746 1.639307 -4.634057 27.021852 0.000000 -0.000001 -0.000000 1.537598 -11.799189 6.929997 2.077799 -4.286922 30.313308 0.000001 -0.000002 0.000002 2.277213 -19.700310 14.604140 3.606966 -2.772439 22.891461 -0.000002 0.000001 -0.000001 -0.000003 -0.000000 0.000000 -0.000002 0.000000 -0.000001 -0.000002 0.000000 -0.000001 -0.000002 0.000000 -0.000001 -0.000002 0.000000 -0.000001 -0.000002 0.000000 -0.000001 -0.000002 0.000000 -0.000001 -0.000002 0.000000 0.000001 -0.000002 0.000000 0.000001 0.000002 0.000001 -0.000001 0.000000 -0.000000 0.000000 
-1.287257 77.720314 0.263424 7.383312 -62.480576 7.653095 -0.000000 0.000001 -0.000000 -33.485890 12.616124 26.066036 39.201639 -7.741640 1.283534 -11.052540 -1.897809 -17.400633 -0.000000 0.000002 -0.000000 -0.000000 0.000002 0.000001 -0.000002 -0.000004 -0.000003 -26.833684 -21.638770 -33.020246 37.657572 6.554034 -4.159503 -17.177919 -0.970650 23.400476 -0.000000 -0.000000 -0.000000 -0.000001 -0.000001 0.000000 0.000000 0.000000 -0.000003 14.765243 -0.332462 -4.196996 5.731453 0.497486 -2.601730 5.728708 0.572383 -2.640779 -3.172942 1.885437 3.612999 -19.015346 55.489953 2.614352 0.000000 -0.000000 -0.000000 0.000000 -0.000000 -0.000000 0.000000 -0.000000 -0.000000 0.000000 -0.000000 -0.000000 0.000000 -0.000000 -0.000000 0.000000 -0.000000 -0.000000 0.000000 -0.000000 -0.000000 0.000000 -0.000000 -0.000000 0.000000 -0.000000 -0.000000 0.000000 -0.000000 -0.000000 0.000000 -0.000000 -0.000000 0.000000 -0.000000 -0.000000 0.000000 -0.000000 -0.000000 0.000000 -0.000000 -0.000000 0.000000 -0.000000 -0.000000 0.000000 -0.000000 -0.000000 0.000000 -0.000000 -0.000000 0.000000 -0.000000 -0.000000 0.000000 -0.000000 -0.000000 1.753354 -3.032296 -12.822383 -32.213836 23.425713 -33.713510 0.377240 -47.042849 0.374139 -16.387646 -0.524153 3.915359 40.109886 -15.297201 -0.360479 5.639906 28.097814 11.338768 0.000000 0.000001 -0.000001 6.882260 2.840017 -61.140486 8.247973 7.640027 -89.897884 -0.000006 0.000001 -0.000003 -2.345526 4.688870 -62.655231 8.754153 9.897054 -87.051246 -0.000003 -0.000000 0.000001 -9.042489 10.045640 -60.766192 8.523979 9.508897 -66.892940 0.000002 -0.000000 -0.000002 -17.946875 14.754990 -51.485898 8.868370 8.667013 -84.812091 0.000004 0.000001 0.000001 0.000000 0.000000 0.000001 -1.447336 6.161773 8.633109 9.394081 -10.760413 54.077104 -22.572467 37.039491 17.841277 -25.737437 10.731200 -17.031936 -2.096128 -5.152953 9.668783 2.419517 -22.184250 -8.315904 -0.000000 0.000001 -0.000002 0.010647 -0.298145 5.838085 0.147987 -0.978327 11.261735 0.000002 0.000003 0.000000 0.435406 -6.777992 7.554058 1.917823 -5.120886 30.524327 -0.000001 -0.000001 -0.000002 1.924884 -11.837263 10.016844 2.453711 -4.859690 34.305680 0.000002 0.000000 -0.000001 2.496680 -20.238839 18.079680 3.985108 -3.472897 27.434978 0.000002 -0.000000 0.000001 -0.000002 -0.000001 0.000001 0.000001 -0.000003 0.000003 0.000001 -0.000003 0.000003 0.000001 -0.000003 0.000003 0.000001 -0.000003 0.000003 0.000001 -0.000003 0.000003 0.000001 -0.000003 0.000003 0.000001 0.000000 -0.000001 0.000001 0.000000 -0.000001 0.000001 -0.000001 -0.000000 -0.000000 0.000001 -0.000000 
-1.238090 77.744247 0.236209 6.166595 -63.312022 6.241901 -0.000000 0.000000 -0.000000 -33.039213 13.043764 26.918470 39.620998 -8.039678 1.263080 -11.424990 -1.671813 -17.390369 0.000000 -0.000002 0.000000 -0.000001 0.000001 -0.000001 -0.000001 -0.000002 0.000000 -26.270299 -21.596763 -32.584032 37.523727 7.342915 -4.085677 -17.003549 -1.109619 23.026963 0.000000 -0.000000 -0.000000 0.000002 0.000000 0.000001 0.000000 0.000000 0.000001 14.415017 -0.294009 -4.103079 5.567097 0.412688 -2.385938 5.566064 0.484800 -2.409090 -2.647252 2.365243 3.479153 -17.989685 56.103232 2.243567 -0.000000 -0.000000 0.000001 -0.000000 -0.000000 0.000001 -0.000000 -0.000000 0.000001 -0.000000 -0.000000 0.000001 -0.000000 -0.000000 0.000001 -0.000000 -0.000000 0.000001 -0.000000 -0.000000 0.000001 -0.000000 -0.000000 0.000001 -0.000000 -0.000000 0.000001 -0.000000 -0.000000 0.000001 -0.000000 -0.000000 0.000001 -0.000000 -0.000000 0.000001 -0.000000 -0.000000 0.000001 -0.000000 -0.000000 0.000001 -0.000000 -0.000000 0.000001 -0.000000 -0.000000 0.000001 -0.000000 -0.000000 0.000001 -0.000000 -0.000000 0.000001 -0.000000 -0.000000 0.000001 1.672551 -2.851069 -13.443084 -28.046000 22.205737 -32.670485 0.347583 -46.527245 0.330403 -19.859482 -1.433904 5.545892 40.109883 -15.297199 -0.360478 5.639910 28.097802 11.338773 -0.000000 -0.000001 0.000002 6.882259 2.840020 -61.140486 8.247972 7.640029 -89.897891 0.000002 0.000001 -0.000003 -2.345528 4.688870 -62.655231 8.754153 9.897050 -87.051246 0.000000 0.000000 0.000000 -9.042489 10.045640 -60.766192 8.523986 9.508897 -66.892933 0.000001 -0.000003 -0.000000 -17.946877 14.754993 -51.485898 8.868368 8.667013 -84.812091 0.000004 -0.000001 -0.000003 0.000004 0.000001 -0.000002 -3.766285 5.416450 8.450674 10.628833 -12.718377 54.218195 -22.307118 38.229313 17.808316 -24.218150 10.776478 -16.612408 -1.948310 -4.635260 9.073829 2.440877 -21.283365 -8.070744 0.000001 0.000002 -0.000002 0.075709 -0.754039 8.595592 0.259675 -1.461755 14.669955 -0.000002 -0.000003 -0.000001 0.518901 -7.250096 10.225990 2.241025 -5.604540 34.164565 -0.000001 0.000002 -0.000001 2.292856 -11.852342 12.948995 2.872664 -5.404312 38.305139 0.000001 -0.000001 0.000002 2.696882 -20.720383 21.219499 4.399096 -4.103579 31.748191 0.000001 -0.000000 0.000001 -0.000003 0.000001 -0.000003 -0.000001 0.000000 -0.000000 -0.000001 0.000000 -0.000000 -0.000001 0.000000 -0.000000 -0.000001 0.000000 -0.000000 -0.000001 0.000000 -0.000000 -0.000001 0.000000 0.000000 -0.000000 0.000001 0.000001 -0.000000 0.000001 0.000001 -0.000000 -0.000000 -0.000000 -0.000000 0.000000 -0.000000 
